# xmcd
#
# Track frame offsets:
#	150
#	18344
#	32031
#	50460
#	73481
#	87905
#	102631
#	126453
#	141594
#	159443
#	172421
#	192899
#	207705
#	225697
#	245415
#	265384
#	279058
#	296029
#	312808
#	331051
#
# Disc length: 4595 seconds
#
# Revision: 1
# Processed by: cddbd v1.5.2PL0 Copyright (c) Steve Scherf et al.
# Submitted via: audiograbber 1.83.01
#
DISCID=3b11f114
DTITLE=Various Artist - So Country 2009 - CD 1
DYEAR=2009
DGENRE=Country
TTITLE0=Carrie Underwood - Last Name
TTITLE1=Sugarland - It Happens
TTITLE2=Taylor Swift - The Way I Loved You
TTITLE3=Alan Jackson - Good Time
TTITLE4=Kenny Chesney - Ten With A Two
TTITLE5=Lee Ann Womack - Last Call
TTITLE6=Tim McGraw - Suspicions
TTITLE7=Gary Allan - She's So California
TTITLE8=Billy Currington - Don't
TTITLE9=Jessica Simpson - Come On Over
TTITLE10=Brad Paisley - Waitin' On A Woman
TTITLE11=Kellie Pickler - Don't You Know You're Beautiful
TTITLE12=The McClymonts - Finally Over Blue
TTITLE13=Ryan Adams - Let Us Down Easy
TTITLE14=LeAnn Rimes - Nothin' Better To Do
TTITLE15=Adam Harvey - Genie In The Bottle
TTITLE16=Julianne Hough - You, You, You
TTITLE17=Teddy Thompson - The Things I Do
TTITLE18=Mary Chapin Carpenter - He Thinks He'll Keep Her
TTITLE19=Shane Nicholson - Gold and Elvis
EXTD=
EXTT0=
EXTT1=
EXTT2=
EXTT3=
EXTT4=
EXTT5=
EXTT6=
EXTT7=
EXTT8=
EXTT9=
EXTT10=
EXTT11=
EXTT12=
EXTT13=
EXTT14=
EXTT15=
EXTT16=
EXTT17=
EXTT18=
EXTT19=
PLAYORDER=
